<?xml version="1.0" encoding="UTF-8" standalone="no"?>
<!DOCTYPE svg PUBLIC "-//W3C//DTD SVG 1.1//EN"
 "http://www.w3.org/Graphics/SVG/1.1/DTD/svg11.dtd">
<!-- Generated by graphviz version 10.0.1 (0)
 -->
<!-- Title: G Pages: 1 -->
<svg width="832px" height="1440px"
 viewBox="0.00 0.00 832.00 1439.63" xmlns="http://www.w3.org/2000/svg" xmlns:xlink="http://www.w3.org/1999/xlink">
<g id="graph0" class="graph" transform="scale(1 1) rotate(0) translate(4 1435.63)">
<title>G</title>
<text text-anchor="middle" x="412" y="-7.95" font-family="Times,serif" font-size="14.00">Example</text>
<g id="clust1" class="cluster">
<title>axi4imsic00</title>
<polygon fill="none" stroke="black" points="8,-133.19 8,-564.19 204,-564.19 204,-133.19 8,-133.19"/>
<text text-anchor="middle" x="106" y="-546.89" font-family="Times,serif" font-size="14.00">imsic00</text>
<text text-anchor="middle" x="106" y="-529.64" font-family="Times,serif" font-size="14.00">AXI4IMSIC</text>
</g>
<g id="clust2" class="cluster">
<title>imsic00</title>
<polygon fill="#f8cecc" stroke="#b85450" points="16,-211.69 16,-391.19 196,-391.19 196,-211.69 16,-211.69"/>
<text text-anchor="middle" x="106" y="-373.89" font-family="Times,serif" font-size="14.00">imsic00</text>
<text text-anchor="middle" x="106" y="-356.64" font-family="Times,serif" font-size="14.00">TLIMSIC</text>
</g>
<g id="clust3" class="cluster">
<title>axi4imsic01</title>
<polygon fill="none" stroke="black" points="212,-133.19 212,-564.19 408,-564.19 408,-133.19 212,-133.19"/>
<text text-anchor="middle" x="310" y="-546.89" font-family="Times,serif" font-size="14.00">imsic01</text>
<text text-anchor="middle" x="310" y="-529.64" font-family="Times,serif" font-size="14.00">AXI4IMSIC</text>
</g>
<g id="clust4" class="cluster">
<title>imsic01</title>
<polygon fill="#f8cecc" stroke="#b85450" points="220,-211.69 220,-391.19 400,-391.19 400,-211.69 220,-211.69"/>
<text text-anchor="middle" x="310" y="-373.89" font-family="Times,serif" font-size="14.00">imsic01</text>
<text text-anchor="middle" x="310" y="-356.64" font-family="Times,serif" font-size="14.00">TLIMSIC</text>
</g>
<g id="clust5" class="cluster">
<title>axi4imsic10</title>
<polygon fill="none" stroke="black" points="416,-133.19 416,-564.19 612,-564.19 612,-133.19 416,-133.19"/>
<text text-anchor="middle" x="514" y="-546.89" font-family="Times,serif" font-size="14.00">imsic10</text>
<text text-anchor="middle" x="514" y="-529.64" font-family="Times,serif" font-size="14.00">AXI4IMSIC</text>
</g>
<g id="clust6" class="cluster">
<title>imsic10</title>
<polygon fill="#f8cecc" stroke="#b85450" points="424,-211.69 424,-391.19 604,-391.19 604,-211.69 424,-211.69"/>
<text text-anchor="middle" x="514" y="-373.89" font-family="Times,serif" font-size="14.00">imsic10</text>
<text text-anchor="middle" x="514" y="-356.64" font-family="Times,serif" font-size="14.00">TLIMSIC</text>
</g>
<g id="clust7" class="cluster">
<title>axi4imsic11</title>
<polygon fill="none" stroke="black" points="620,-133.19 620,-564.19 816,-564.19 816,-133.19 620,-133.19"/>
<text text-anchor="middle" x="718" y="-546.89" font-family="Times,serif" font-size="14.00">imsic11</text>
<text text-anchor="middle" x="718" y="-529.64" font-family="Times,serif" font-size="14.00">AXI4IMSIC</text>
</g>
<g id="clust8" class="cluster">
<title>imsic11</title>
<polygon fill="#f8cecc" stroke="#b85450" points="628,-211.69 628,-391.19 808,-391.19 808,-211.69 628,-211.69"/>
<text text-anchor="middle" x="718" y="-373.89" font-family="Times,serif" font-size="14.00">imsic11</text>
<text text-anchor="middle" x="718" y="-356.64" font-family="Times,serif" font-size="14.00">TLIMSIC</text>
</g>
<g id="clust9" class="cluster">
<title>axi4aplic</title>
<polygon fill="none" stroke="black" points="382,-755.69 382,-1265.19 638,-1265.19 638,-755.69 382,-755.69"/>
<text text-anchor="middle" x="510" y="-1247.89" font-family="Times,serif" font-size="14.00">aplic</text>
<text text-anchor="middle" x="510" y="-1230.64" font-family="Times,serif" font-size="14.00">AXI4APLIC</text>
</g>
<g id="clust10" class="cluster">
<title>aplic</title>
<polygon fill="#f8cecc" stroke="#b85450" points="390,-906.19 390,-1085.69 630,-1085.69 630,-906.19 390,-906.19"/>
<text text-anchor="middle" x="510" y="-1068.39" font-family="Times,serif" font-size="14.00">aplic</text>
<text text-anchor="middle" x="510" y="-1051.14" font-family="Times,serif" font-size="14.00">TLAPLIC</text>
</g>
<!-- toAIA -->
<g id="node1" class="node">
<title>toAIA</title>
<polygon fill="none" stroke="black" points="474.12,-1394.19 335.88,-1394.19 335.88,-1351.69 474.12,-1351.69 474.12,-1394.19"/>
<text text-anchor="middle" x="405" y="-1376.89" font-family="Times,serif" font-size="14.00">toAIA</text>
<text text-anchor="middle" x="405" y="-1359.64" font-family="Times,serif" font-size="14.00">AXI4MasterNode</text>
</g>
<!-- toAIA_xbar -->
<g id="node2" class="node">
<title>toAIA_xbar</title>
<polygon fill="none" stroke="black" points="542,-1315.69 182,-1315.69 182,-1273.19 542,-1273.19 542,-1315.69"/>
<text text-anchor="middle" x="362" y="-1298.39" font-family="Times,serif" font-size="14.00">toAIA_xbar</text>
<text text-anchor="middle" x="362" y="-1281.14" font-family="Times,serif" font-size="14.00">AXI4Xbar</text>
</g>
<!-- toAIA&#45;&gt;toAIA_xbar -->
<g id="edge1" class="edge">
<title>toAIA&#45;&gt;toAIA_xbar</title>
<path fill="none" stroke="black" d="M405,-1351.49C405,-1351.49 405,-1327.65 405,-1327.65"/>
<polygon fill="black" stroke="black" points="408.5,-1327.65 405,-1317.65 401.5,-1327.65 408.5,-1327.65"/>
</g>
<!-- imsics_fromMem_xbar -->
<g id="node3" class="node">
<title>imsics_fromMem_xbar</title>
<polygon fill="none" stroke="black" points="772,-727.69 52,-727.69 52,-685.19 772,-685.19 772,-727.69"/>
<text text-anchor="middle" x="412" y="-710.39" font-family="Times,serif" font-size="14.00">imsics_fromMem_xbar</text>
<text text-anchor="middle" x="412" y="-693.14" font-family="Times,serif" font-size="14.00">AXI4Xbar</text>
</g>
<!-- toAIA_xbar&#45;&gt;imsics_fromMem_xbar -->
<g id="edge2" class="edge">
<title>toAIA_xbar&#45;&gt;imsics_fromMem_xbar</title>
<path fill="none" stroke="black" d="M286.12,-1272.82C286.12,-1272.82 286.12,-739.46 286.12,-739.46"/>
<polygon fill="black" stroke="black" points="289.63,-739.46 286.13,-729.46 282.63,-739.46 289.63,-739.46"/>
</g>
<!-- axi4aplic_fromCPU -->
<g id="node47" class="node">
<title>axi4aplic_fromCPU</title>
<polygon fill="none" stroke="black" points="533.75,-1214.69 390.25,-1214.69 390.25,-1172.19 533.75,-1172.19 533.75,-1214.69"/>
<text text-anchor="middle" x="462" y="-1197.39" font-family="Times,serif" font-size="14.00">fromCPU</text>
<text text-anchor="middle" x="462" y="-1180.14" font-family="Times,serif" font-size="14.00">AXI4IdentityNode</text>
</g>
<!-- toAIA_xbar&#45;&gt;axi4aplic_fromCPU -->
<g id="edge50" class="edge">
<title>toAIA_xbar&#45;&gt;axi4aplic_fromCPU</title>
<path fill="none" stroke="black" d="M462,-1273.02C462,-1273.02 462,-1226.69 462,-1226.69"/>
<polygon fill="black" stroke="black" points="465.5,-1226.69 462,-1216.69 458.5,-1226.69 465.5,-1226.69"/>
</g>
<!-- map00 -->
<g id="node11" class="node">
<title>map00</title>
<polygon fill="none" stroke="black" points="213,-649.19 47,-649.19 47,-572.19 213,-572.19 213,-649.19"/>
<text text-anchor="middle" x="130" y="-631.89" font-family="Times,serif" font-size="14.00">[mAddr00,sgAddr00]</text>
<text text-anchor="middle" x="130" y="-614.64" font-family="Times,serif" font-size="14.00">map00</text>
<text text-anchor="middle" x="130" y="-597.39" font-family="Times,serif" font-size="14.00">AXI4Map</text>
<text text-anchor="middle" x="130" y="-580.14" font-family="Times,serif" font-size="14.00">[0x0,0x10000]</text>
</g>
<!-- imsics_fromMem_xbar&#45;&gt;map00 -->
<g id="edge9" class="edge">
<title>imsics_fromMem_xbar&#45;&gt;map00</title>
<path fill="none" stroke="black" d="M132.5,-684.71C132.5,-684.71 132.5,-661.15 132.5,-661.15"/>
<polygon fill="black" stroke="black" points="136,-661.15 132.5,-651.15 129,-661.15 136,-661.15"/>
</g>
<!-- map01 -->
<g id="node19" class="node">
<title>map01</title>
<polygon fill="none" stroke="black" points="403,-649.19 237,-649.19 237,-572.19 403,-572.19 403,-649.19"/>
<text text-anchor="middle" x="320" y="-631.89" font-family="Times,serif" font-size="14.00">[mAddr01,sgAddr01]</text>
<text text-anchor="middle" x="320" y="-614.64" font-family="Times,serif" font-size="14.00">map11</text>
<text text-anchor="middle" x="320" y="-597.39" font-family="Times,serif" font-size="14.00">AXI4Map</text>
<text text-anchor="middle" x="320" y="-580.14" font-family="Times,serif" font-size="14.00">[0x0,0x10000]</text>
</g>
<!-- imsics_fromMem_xbar&#45;&gt;map01 -->
<g id="edge17" class="edge">
<title>imsics_fromMem_xbar&#45;&gt;map01</title>
<path fill="none" stroke="black" d="M320,-684.71C320,-684.71 320,-661.15 320,-661.15"/>
<polygon fill="black" stroke="black" points="323.5,-661.15 320,-651.15 316.5,-661.15 323.5,-661.15"/>
</g>
<!-- map10 -->
<g id="node27" class="node">
<title>map10</title>
<polygon fill="none" stroke="black" points="587,-649.19 421,-649.19 421,-572.19 587,-572.19 587,-649.19"/>
<text text-anchor="middle" x="504" y="-631.89" font-family="Times,serif" font-size="14.00">[mAddr10,sgAddr10]</text>
<text text-anchor="middle" x="504" y="-614.64" font-family="Times,serif" font-size="14.00">map00</text>
<text text-anchor="middle" x="504" y="-597.39" font-family="Times,serif" font-size="14.00">AXI4Map</text>
<text text-anchor="middle" x="504" y="-580.14" font-family="Times,serif" font-size="14.00">[0x0,0x10000]</text>
</g>
<!-- imsics_fromMem_xbar&#45;&gt;map10 -->
<g id="edge25" class="edge">
<title>imsics_fromMem_xbar&#45;&gt;map10</title>
<path fill="none" stroke="black" d="M504,-684.71C504,-684.71 504,-661.15 504,-661.15"/>
<polygon fill="black" stroke="black" points="507.5,-661.15 504,-651.15 500.5,-661.15 507.5,-661.15"/>
</g>
<!-- map11 -->
<g id="node35" class="node">
<title>map11</title>
<polygon fill="none" stroke="black" points="777,-649.19 611,-649.19 611,-572.19 777,-572.19 777,-649.19"/>
<text text-anchor="middle" x="694" y="-631.89" font-family="Times,serif" font-size="14.00">[mAddr11,sgAddr11]</text>
<text text-anchor="middle" x="694" y="-614.64" font-family="Times,serif" font-size="14.00">map11</text>
<text text-anchor="middle" x="694" y="-597.39" font-family="Times,serif" font-size="14.00">AXI4Map</text>
<text text-anchor="middle" x="694" y="-580.14" font-family="Times,serif" font-size="14.00">[0x0,0x10000]</text>
</g>
<!-- imsics_fromMem_xbar&#45;&gt;map11 -->
<g id="edge33" class="edge">
<title>imsics_fromMem_xbar&#45;&gt;map11</title>
<path fill="none" stroke="black" d="M691.5,-684.71C691.5,-684.71 691.5,-661.15 691.5,-661.15"/>
<polygon fill="black" stroke="black" points="695,-661.15 691.5,-651.15 688,-661.15 695,-661.15"/>
</g>
<!-- imsic00_fromMem -->
<g id="node4" class="node">
<title>imsic00_fromMem</title>
<polygon fill="none" stroke="black" points="166.88,-340.69 81.12,-340.69 81.12,-298.19 166.88,-298.19 166.88,-340.69"/>
<text text-anchor="middle" x="124" y="-323.39" font-family="Times,serif" font-size="14.00">fromMem</text>
<text text-anchor="middle" x="124" y="-306.14" font-family="Times,serif" font-size="14.00">TLXbar</text>
</g>
<!-- imsic00_fromCSR -->
<g id="node5" class="node">
<title>imsic00_fromCSR</title>
<polygon fill="none" stroke="black" points="188.25,-262.19 107.75,-262.19 107.75,-219.69 188.25,-219.69 188.25,-262.19"/>
<text text-anchor="middle" x="148" y="-244.89" font-family="Times,serif" font-size="14.00">fromCSR</text>
<text text-anchor="middle" x="148" y="-227.64" font-family="Times,serif" font-size="14.00">Bundle</text>
</g>
<!-- imsic00_fromMem&#45;&gt;imsic00_fromCSR -->
<g id="edge3" class="edge">
<title>imsic00_fromMem&#45;&gt;imsic00_fromCSR</title>
<path fill="none" stroke="none" d="M137.31,-297.99C137.31,-297.99 137.31,-274.15 137.31,-274.15"/>
<polygon fill="none" stroke="none" points="140.81,-274.15 137.31,-264.15 133.81,-274.15 140.81,-274.15"/>
</g>
<!-- imsic00_toCSR -->
<g id="node6" class="node">
<title>imsic00_toCSR</title>
<polygon fill="none" stroke="black" points="90.12,-262.19 23.88,-262.19 23.88,-219.69 90.12,-219.69 90.12,-262.19"/>
<text text-anchor="middle" x="57" y="-244.89" font-family="Times,serif" font-size="14.00">toCSR</text>
<text text-anchor="middle" x="57" y="-227.64" font-family="Times,serif" font-size="14.00">Bundle</text>
</g>
<!-- imsic00_fromMem&#45;&gt;imsic00_toCSR -->
<g id="edge4" class="edge">
<title>imsic00_fromMem&#45;&gt;imsic00_toCSR</title>
<path fill="none" stroke="none" d="M85.62,-297.99C85.62,-297.99 85.62,-274.15 85.62,-274.15"/>
<polygon fill="none" stroke="none" points="89.13,-274.15 85.63,-264.15 82.13,-274.15 89.13,-274.15"/>
</g>
<!-- axi4imsic00_fromCSR -->
<g id="node10" class="node">
<title>axi4imsic00_fromCSR</title>
<polygon fill="none" stroke="black" points="196.25,-183.69 115.75,-183.69 115.75,-141.19 196.25,-141.19 196.25,-183.69"/>
<text text-anchor="middle" x="156" y="-166.39" font-family="Times,serif" font-size="14.00">fromCSR</text>
<text text-anchor="middle" x="156" y="-149.14" font-family="Times,serif" font-size="14.00">Bundle</text>
</g>
<!-- imsic00_fromCSR&#45;&gt;axi4imsic00_fromCSR -->
<g id="edge8" class="edge">
<title>imsic00_fromCSR&#45;&gt;axi4imsic00_fromCSR</title>
<path fill="none" stroke="black" d="M152,-207.98C152,-207.98 152,-184.14 152,-184.14"/>
<polygon fill="black" stroke="black" points="148.5,-207.98 152,-217.98 155.5,-207.98 148.5,-207.98"/>
</g>
<!-- axi4imsic00_toCSR -->
<g id="node9" class="node">
<title>axi4imsic00_toCSR</title>
<polygon fill="none" stroke="black" points="90.12,-183.69 23.88,-183.69 23.88,-141.19 90.12,-141.19 90.12,-183.69"/>
<text text-anchor="middle" x="57" y="-166.39" font-family="Times,serif" font-size="14.00">toCSR</text>
<text text-anchor="middle" x="57" y="-149.14" font-family="Times,serif" font-size="14.00">Bundle</text>
</g>
<!-- imsic00_toCSR&#45;&gt;axi4imsic00_toCSR -->
<g id="edge7" class="edge">
<title>imsic00_toCSR&#45;&gt;axi4imsic00_toCSR</title>
<path fill="none" stroke="black" d="M57,-219.49C57,-219.49 57,-195.65 57,-195.65"/>
<polygon fill="black" stroke="black" points="60.5,-195.65 57,-185.65 53.5,-195.65 60.5,-195.65"/>
</g>
<!-- axi4imsic00_fromMem -->
<g id="node7" class="node">
<title>axi4imsic00_fromMem</title>
<polygon fill="none" stroke="black" points="195.75,-513.69 52.25,-513.69 52.25,-471.19 195.75,-471.19 195.75,-513.69"/>
<text text-anchor="middle" x="124" y="-496.39" font-family="Times,serif" font-size="14.00">fromMem</text>
<text text-anchor="middle" x="124" y="-479.14" font-family="Times,serif" font-size="14.00">AXI4IdentityNode</text>
</g>
<!-- axi4imsic00_axi4totl -->
<g id="node8" class="node">
<title>axi4imsic00_axi4totl</title>
<polygon fill="#dae8fc" stroke="#6c8ebf" points="166.12,-435.19 81.88,-435.19 81.88,-399.19 166.12,-399.19 166.12,-435.19"/>
<text text-anchor="middle" x="124" y="-412.51" font-family="Times,serif" font-size="14.00">AXI4ToTL</text>
</g>
<!-- axi4imsic00_fromMem&#45;&gt;axi4imsic00_axi4totl -->
<g id="edge5" class="edge">
<title>axi4imsic00_fromMem&#45;&gt;axi4imsic00_axi4totl</title>
<path fill="none" stroke="black" d="M124,-471.08C124,-471.08 124,-446.81 124,-446.81"/>
<polygon fill="black" stroke="black" points="127.5,-446.81 124,-436.81 120.5,-446.81 127.5,-446.81"/>
</g>
<!-- axi4imsic00_axi4totl&#45;&gt;imsic00_fromMem -->
<g id="edge6" class="edge">
<title>axi4imsic00_axi4totl&#45;&gt;imsic00_fromMem</title>
<path fill="none" stroke="black" d="M124,-398.8C124,-398.8 124,-352.67 124,-352.67"/>
<polygon fill="black" stroke="black" points="127.5,-352.67 124,-342.67 120.5,-352.67 127.5,-352.67"/>
</g>
<!-- toCSR0 -->
<g id="node36" class="node">
<title>toCSR0</title>
<polygon fill="none" stroke="black" points="96,-105.19 26,-105.19 26,-62.69 96,-62.69 96,-105.19"/>
<text text-anchor="middle" x="61" y="-87.89" font-family="Times,serif" font-size="14.00">toCSR0</text>
<text text-anchor="middle" x="61" y="-70.64" font-family="Times,serif" font-size="14.00">Bundle</text>
</g>
<!-- axi4imsic00_toCSR&#45;&gt;toCSR0 -->
<g id="edge35" class="edge">
<title>axi4imsic00_toCSR&#45;&gt;toCSR0</title>
<path fill="none" stroke="black" d="M58.06,-140.99C58.06,-140.99 58.06,-117.15 58.06,-117.15"/>
<polygon fill="black" stroke="black" points="61.56,-117.15 58.06,-107.15 54.56,-117.15 61.56,-117.15"/>
</g>
<!-- fromCSR0 -->
<g id="node37" class="node">
<title>fromCSR0</title>
<polygon fill="none" stroke="black" points="203.75,-105.19 114.25,-105.19 114.25,-62.69 203.75,-62.69 203.75,-105.19"/>
<text text-anchor="middle" x="159" y="-87.89" font-family="Times,serif" font-size="14.00">fromCSR0</text>
<text text-anchor="middle" x="159" y="-70.64" font-family="Times,serif" font-size="14.00">Bundle</text>
</g>
<!-- axi4imsic00_fromCSR&#45;&gt;fromCSR0 -->
<g id="edge36" class="edge">
<title>axi4imsic00_fromCSR&#45;&gt;fromCSR0</title>
<path fill="none" stroke="black" d="M156,-129.48C156,-129.48 156,-105.64 156,-105.64"/>
<polygon fill="black" stroke="black" points="152.5,-129.48 156,-139.48 159.5,-129.48 152.5,-129.48"/>
</g>
<!-- map00&#45;&gt;axi4imsic00_fromMem -->
<g id="edge10" class="edge">
<title>map00&#45;&gt;axi4imsic00_fromMem</title>
<path fill="none" stroke="black" d="M124,-571.97C124,-571.97 124,-525.5 124,-525.5"/>
<polygon fill="black" stroke="black" points="127.5,-525.5 124,-515.5 120.5,-525.5 127.5,-525.5"/>
</g>
<!-- imsic01_fromMem -->
<g id="node12" class="node">
<title>imsic01_fromMem</title>
<polygon fill="none" stroke="black" points="362.88,-340.69 277.12,-340.69 277.12,-298.19 362.88,-298.19 362.88,-340.69"/>
<text text-anchor="middle" x="320" y="-323.39" font-family="Times,serif" font-size="14.00">fromMem</text>
<text text-anchor="middle" x="320" y="-306.14" font-family="Times,serif" font-size="14.00">TLXbar</text>
</g>
<!-- imsic01_fromCSR -->
<g id="node13" class="node">
<title>imsic01_fromCSR</title>
<polygon fill="none" stroke="black" points="392.25,-262.19 311.75,-262.19 311.75,-219.69 392.25,-219.69 392.25,-262.19"/>
<text text-anchor="middle" x="352" y="-244.89" font-family="Times,serif" font-size="14.00">fromCSR</text>
<text text-anchor="middle" x="352" y="-227.64" font-family="Times,serif" font-size="14.00">Bundle</text>
</g>
<!-- imsic01_fromMem&#45;&gt;imsic01_fromCSR -->
<g id="edge11" class="edge">
<title>imsic01_fromMem&#45;&gt;imsic01_fromCSR</title>
<path fill="none" stroke="none" d="M337.31,-297.99C337.31,-297.99 337.31,-274.15 337.31,-274.15"/>
<polygon fill="none" stroke="none" points="340.81,-274.15 337.31,-264.15 333.81,-274.15 340.81,-274.15"/>
</g>
<!-- imsic01_toCSR -->
<g id="node14" class="node">
<title>imsic01_toCSR</title>
<polygon fill="none" stroke="black" points="294.12,-262.19 227.88,-262.19 227.88,-219.69 294.12,-219.69 294.12,-262.19"/>
<text text-anchor="middle" x="261" y="-244.89" font-family="Times,serif" font-size="14.00">toCSR</text>
<text text-anchor="middle" x="261" y="-227.64" font-family="Times,serif" font-size="14.00">Bundle</text>
</g>
<!-- imsic01_fromMem&#45;&gt;imsic01_toCSR -->
<g id="edge12" class="edge">
<title>imsic01_fromMem&#45;&gt;imsic01_toCSR</title>
<path fill="none" stroke="none" d="M285.62,-297.99C285.62,-297.99 285.62,-274.15 285.62,-274.15"/>
<polygon fill="none" stroke="none" points="289.13,-274.15 285.63,-264.15 282.13,-274.15 289.13,-274.15"/>
</g>
<!-- axi4imsic01_fromCSR -->
<g id="node18" class="node">
<title>axi4imsic01_fromCSR</title>
<polygon fill="none" stroke="black" points="396.25,-183.69 315.75,-183.69 315.75,-141.19 396.25,-141.19 396.25,-183.69"/>
<text text-anchor="middle" x="356" y="-166.39" font-family="Times,serif" font-size="14.00">fromCSR</text>
<text text-anchor="middle" x="356" y="-149.14" font-family="Times,serif" font-size="14.00">Bundle</text>
</g>
<!-- imsic01_fromCSR&#45;&gt;axi4imsic01_fromCSR -->
<g id="edge16" class="edge">
<title>imsic01_fromCSR&#45;&gt;axi4imsic01_fromCSR</title>
<path fill="none" stroke="black" d="M354,-207.98C354,-207.98 354,-184.14 354,-184.14"/>
<polygon fill="black" stroke="black" points="350.5,-207.98 354,-217.98 357.5,-207.98 350.5,-207.98"/>
</g>
<!-- axi4imsic01_toCSR -->
<g id="node17" class="node">
<title>axi4imsic01_toCSR</title>
<polygon fill="none" stroke="black" points="294.12,-183.69 227.88,-183.69 227.88,-141.19 294.12,-141.19 294.12,-183.69"/>
<text text-anchor="middle" x="261" y="-166.39" font-family="Times,serif" font-size="14.00">toCSR</text>
<text text-anchor="middle" x="261" y="-149.14" font-family="Times,serif" font-size="14.00">Bundle</text>
</g>
<!-- imsic01_toCSR&#45;&gt;axi4imsic01_toCSR -->
<g id="edge15" class="edge">
<title>imsic01_toCSR&#45;&gt;axi4imsic01_toCSR</title>
<path fill="none" stroke="black" d="M261,-219.49C261,-219.49 261,-195.65 261,-195.65"/>
<polygon fill="black" stroke="black" points="264.5,-195.65 261,-185.65 257.5,-195.65 264.5,-195.65"/>
</g>
<!-- axi4imsic01_fromMem -->
<g id="node15" class="node">
<title>axi4imsic01_fromMem</title>
<polygon fill="none" stroke="black" points="391.75,-513.69 248.25,-513.69 248.25,-471.19 391.75,-471.19 391.75,-513.69"/>
<text text-anchor="middle" x="320" y="-496.39" font-family="Times,serif" font-size="14.00">fromMem</text>
<text text-anchor="middle" x="320" y="-479.14" font-family="Times,serif" font-size="14.00">AXI4IdentityNode</text>
</g>
<!-- axi4imsic01_axi4totl -->
<g id="node16" class="node">
<title>axi4imsic01_axi4totl</title>
<polygon fill="#dae8fc" stroke="#6c8ebf" points="362.12,-435.19 277.88,-435.19 277.88,-399.19 362.12,-399.19 362.12,-435.19"/>
<text text-anchor="middle" x="320" y="-412.51" font-family="Times,serif" font-size="14.00">AXI4ToTL</text>
</g>
<!-- axi4imsic01_fromMem&#45;&gt;axi4imsic01_axi4totl -->
<g id="edge13" class="edge">
<title>axi4imsic01_fromMem&#45;&gt;axi4imsic01_axi4totl</title>
<path fill="none" stroke="black" d="M320,-471.08C320,-471.08 320,-446.81 320,-446.81"/>
<polygon fill="black" stroke="black" points="323.5,-446.81 320,-436.81 316.5,-446.81 323.5,-446.81"/>
</g>
<!-- axi4imsic01_axi4totl&#45;&gt;imsic01_fromMem -->
<g id="edge14" class="edge">
<title>axi4imsic01_axi4totl&#45;&gt;imsic01_fromMem</title>
<path fill="none" stroke="black" d="M320,-398.8C320,-398.8 320,-352.67 320,-352.67"/>
<polygon fill="black" stroke="black" points="323.5,-352.67 320,-342.67 316.5,-352.67 323.5,-352.67"/>
</g>
<!-- toCSR1 -->
<g id="node38" class="node">
<title>toCSR1</title>
<polygon fill="none" stroke="black" points="296,-105.19 226,-105.19 226,-62.69 296,-62.69 296,-105.19"/>
<text text-anchor="middle" x="261" y="-87.89" font-family="Times,serif" font-size="14.00">toCSR1</text>
<text text-anchor="middle" x="261" y="-70.64" font-family="Times,serif" font-size="14.00">Bundle</text>
</g>
<!-- axi4imsic01_toCSR&#45;&gt;toCSR1 -->
<g id="edge37" class="edge">
<title>axi4imsic01_toCSR&#45;&gt;toCSR1</title>
<path fill="none" stroke="black" d="M261,-140.99C261,-140.99 261,-117.15 261,-117.15"/>
<polygon fill="black" stroke="black" points="264.5,-117.15 261,-107.15 257.5,-117.15 264.5,-117.15"/>
</g>
<!-- fromCSR1 -->
<g id="node39" class="node">
<title>fromCSR1</title>
<polygon fill="none" stroke="black" points="403.75,-105.19 314.25,-105.19 314.25,-62.69 403.75,-62.69 403.75,-105.19"/>
<text text-anchor="middle" x="359" y="-87.89" font-family="Times,serif" font-size="14.00">fromCSR1</text>
<text text-anchor="middle" x="359" y="-70.64" font-family="Times,serif" font-size="14.00">Bundle</text>
</g>
<!-- axi4imsic01_fromCSR&#45;&gt;fromCSR1 -->
<g id="edge38" class="edge">
<title>axi4imsic01_fromCSR&#45;&gt;fromCSR1</title>
<path fill="none" stroke="black" d="M356,-129.48C356,-129.48 356,-105.64 356,-105.64"/>
<polygon fill="black" stroke="black" points="352.5,-129.48 356,-139.48 359.5,-129.48 352.5,-129.48"/>
</g>
<!-- map01&#45;&gt;axi4imsic01_fromMem -->
<g id="edge18" class="edge">
<title>map01&#45;&gt;axi4imsic01_fromMem</title>
<path fill="none" stroke="black" d="M320,-571.97C320,-571.97 320,-525.5 320,-525.5"/>
<polygon fill="black" stroke="black" points="323.5,-525.5 320,-515.5 316.5,-525.5 323.5,-525.5"/>
</g>
<!-- imsic10_fromMem -->
<g id="node20" class="node">
<title>imsic10_fromMem</title>
<polygon fill="none" stroke="black" points="546.88,-340.69 461.12,-340.69 461.12,-298.19 546.88,-298.19 546.88,-340.69"/>
<text text-anchor="middle" x="504" y="-323.39" font-family="Times,serif" font-size="14.00">fromMem</text>
<text text-anchor="middle" x="504" y="-306.14" font-family="Times,serif" font-size="14.00">TLXbar</text>
</g>
<!-- imsic10_fromCSR -->
<g id="node21" class="node">
<title>imsic10_fromCSR</title>
<polygon fill="none" stroke="black" points="596.25,-262.19 515.75,-262.19 515.75,-219.69 596.25,-219.69 596.25,-262.19"/>
<text text-anchor="middle" x="556" y="-244.89" font-family="Times,serif" font-size="14.00">fromCSR</text>
<text text-anchor="middle" x="556" y="-227.64" font-family="Times,serif" font-size="14.00">Bundle</text>
</g>
<!-- imsic10_fromMem&#45;&gt;imsic10_fromCSR -->
<g id="edge19" class="edge">
<title>imsic10_fromMem&#45;&gt;imsic10_fromCSR</title>
<path fill="none" stroke="none" d="M531.31,-297.99C531.31,-297.99 531.31,-274.15 531.31,-274.15"/>
<polygon fill="none" stroke="none" points="534.81,-274.15 531.31,-264.15 527.81,-274.15 534.81,-274.15"/>
</g>
<!-- imsic10_toCSR -->
<g id="node22" class="node">
<title>imsic10_toCSR</title>
<polygon fill="none" stroke="black" points="498.12,-262.19 431.88,-262.19 431.88,-219.69 498.12,-219.69 498.12,-262.19"/>
<text text-anchor="middle" x="465" y="-244.89" font-family="Times,serif" font-size="14.00">toCSR</text>
<text text-anchor="middle" x="465" y="-227.64" font-family="Times,serif" font-size="14.00">Bundle</text>
</g>
<!-- imsic10_fromMem&#45;&gt;imsic10_toCSR -->
<g id="edge20" class="edge">
<title>imsic10_fromMem&#45;&gt;imsic10_toCSR</title>
<path fill="none" stroke="none" d="M479.62,-297.99C479.62,-297.99 479.62,-274.15 479.62,-274.15"/>
<polygon fill="none" stroke="none" points="483.13,-274.15 479.63,-264.15 476.13,-274.15 483.13,-274.15"/>
</g>
<!-- axi4imsic10_fromCSR -->
<g id="node26" class="node">
<title>axi4imsic10_fromCSR</title>
<polygon fill="none" stroke="black" points="595.25,-183.69 514.75,-183.69 514.75,-141.19 595.25,-141.19 595.25,-183.69"/>
<text text-anchor="middle" x="555" y="-166.39" font-family="Times,serif" font-size="14.00">fromCSR</text>
<text text-anchor="middle" x="555" y="-149.14" font-family="Times,serif" font-size="14.00">Bundle</text>
</g>
<!-- imsic10_fromCSR&#45;&gt;axi4imsic10_fromCSR -->
<g id="edge24" class="edge">
<title>imsic10_fromCSR&#45;&gt;axi4imsic10_fromCSR</title>
<path fill="none" stroke="black" d="M555.5,-207.98C555.5,-207.98 555.5,-184.14 555.5,-184.14"/>
<polygon fill="black" stroke="black" points="552,-207.98 555.5,-217.98 559,-207.98 552,-207.98"/>
</g>
<!-- axi4imsic10_toCSR -->
<g id="node25" class="node">
<title>axi4imsic10_toCSR</title>
<polygon fill="none" stroke="black" points="494.12,-183.69 427.88,-183.69 427.88,-141.19 494.12,-141.19 494.12,-183.69"/>
<text text-anchor="middle" x="461" y="-166.39" font-family="Times,serif" font-size="14.00">toCSR</text>
<text text-anchor="middle" x="461" y="-149.14" font-family="Times,serif" font-size="14.00">Bundle</text>
</g>
<!-- imsic10_toCSR&#45;&gt;axi4imsic10_toCSR -->
<g id="edge23" class="edge">
<title>imsic10_toCSR&#45;&gt;axi4imsic10_toCSR</title>
<path fill="none" stroke="black" d="M463,-219.49C463,-219.49 463,-195.65 463,-195.65"/>
<polygon fill="black" stroke="black" points="466.5,-195.65 463,-185.65 459.5,-195.65 466.5,-195.65"/>
</g>
<!-- axi4imsic10_fromMem -->
<g id="node23" class="node">
<title>axi4imsic10_fromMem</title>
<polygon fill="none" stroke="black" points="575.75,-513.69 432.25,-513.69 432.25,-471.19 575.75,-471.19 575.75,-513.69"/>
<text text-anchor="middle" x="504" y="-496.39" font-family="Times,serif" font-size="14.00">fromMem</text>
<text text-anchor="middle" x="504" y="-479.14" font-family="Times,serif" font-size="14.00">AXI4IdentityNode</text>
</g>
<!-- axi4imsic10_axi4totl -->
<g id="node24" class="node">
<title>axi4imsic10_axi4totl</title>
<polygon fill="#dae8fc" stroke="#6c8ebf" points="546.12,-435.19 461.88,-435.19 461.88,-399.19 546.12,-399.19 546.12,-435.19"/>
<text text-anchor="middle" x="504" y="-412.51" font-family="Times,serif" font-size="14.00">AXI4ToTL</text>
</g>
<!-- axi4imsic10_fromMem&#45;&gt;axi4imsic10_axi4totl -->
<g id="edge21" class="edge">
<title>axi4imsic10_fromMem&#45;&gt;axi4imsic10_axi4totl</title>
<path fill="none" stroke="black" d="M504,-471.08C504,-471.08 504,-446.81 504,-446.81"/>
<polygon fill="black" stroke="black" points="507.5,-446.81 504,-436.81 500.5,-446.81 507.5,-446.81"/>
</g>
<!-- axi4imsic10_axi4totl&#45;&gt;imsic10_fromMem -->
<g id="edge22" class="edge">
<title>axi4imsic10_axi4totl&#45;&gt;imsic10_fromMem</title>
<path fill="none" stroke="black" d="M504,-398.8C504,-398.8 504,-352.67 504,-352.67"/>
<polygon fill="black" stroke="black" points="507.5,-352.67 504,-342.67 500.5,-352.67 507.5,-352.67"/>
</g>
<!-- toCSR2 -->
<g id="node40" class="node">
<title>toCSR2</title>
<polygon fill="none" stroke="black" points="492,-105.19 422,-105.19 422,-62.69 492,-62.69 492,-105.19"/>
<text text-anchor="middle" x="457" y="-87.89" font-family="Times,serif" font-size="14.00">toCSR2</text>
<text text-anchor="middle" x="457" y="-70.64" font-family="Times,serif" font-size="14.00">Bundle</text>
</g>
<!-- axi4imsic10_toCSR&#45;&gt;toCSR2 -->
<g id="edge39" class="edge">
<title>axi4imsic10_toCSR&#45;&gt;toCSR2</title>
<path fill="none" stroke="black" d="M459.94,-140.99C459.94,-140.99 459.94,-117.15 459.94,-117.15"/>
<polygon fill="black" stroke="black" points="463.44,-117.15 459.94,-107.15 456.44,-117.15 463.44,-117.15"/>
</g>
<!-- fromCSR2 -->
<g id="node41" class="node">
<title>fromCSR2</title>
<polygon fill="none" stroke="black" points="599.75,-105.19 510.25,-105.19 510.25,-62.69 599.75,-62.69 599.75,-105.19"/>
<text text-anchor="middle" x="555" y="-87.89" font-family="Times,serif" font-size="14.00">fromCSR2</text>
<text text-anchor="middle" x="555" y="-70.64" font-family="Times,serif" font-size="14.00">Bundle</text>
</g>
<!-- axi4imsic10_fromCSR&#45;&gt;fromCSR2 -->
<g id="edge40" class="edge">
<title>axi4imsic10_fromCSR&#45;&gt;fromCSR2</title>
<path fill="none" stroke="black" d="M555,-129.48C555,-129.48 555,-105.64 555,-105.64"/>
<polygon fill="black" stroke="black" points="551.5,-129.48 555,-139.48 558.5,-129.48 551.5,-129.48"/>
</g>
<!-- map10&#45;&gt;axi4imsic10_fromMem -->
<g id="edge26" class="edge">
<title>map10&#45;&gt;axi4imsic10_fromMem</title>
<path fill="none" stroke="black" d="M504,-571.97C504,-571.97 504,-525.5 504,-525.5"/>
<polygon fill="black" stroke="black" points="507.5,-525.5 504,-515.5 500.5,-525.5 507.5,-525.5"/>
</g>
<!-- imsic11_fromMem -->
<g id="node28" class="node">
<title>imsic11_fromMem</title>
<polygon fill="none" stroke="black" points="742.88,-340.69 657.12,-340.69 657.12,-298.19 742.88,-298.19 742.88,-340.69"/>
<text text-anchor="middle" x="700" y="-323.39" font-family="Times,serif" font-size="14.00">fromMem</text>
<text text-anchor="middle" x="700" y="-306.14" font-family="Times,serif" font-size="14.00">TLXbar</text>
</g>
<!-- imsic11_fromCSR -->
<g id="node29" class="node">
<title>imsic11_fromCSR</title>
<polygon fill="none" stroke="black" points="800.25,-262.19 719.75,-262.19 719.75,-219.69 800.25,-219.69 800.25,-262.19"/>
<text text-anchor="middle" x="760" y="-244.89" font-family="Times,serif" font-size="14.00">fromCSR</text>
<text text-anchor="middle" x="760" y="-227.64" font-family="Times,serif" font-size="14.00">Bundle</text>
</g>
<!-- imsic11_fromMem&#45;&gt;imsic11_fromCSR -->
<g id="edge27" class="edge">
<title>imsic11_fromMem&#45;&gt;imsic11_fromCSR</title>
<path fill="none" stroke="none" d="M731.31,-297.99C731.31,-297.99 731.31,-274.15 731.31,-274.15"/>
<polygon fill="none" stroke="none" points="734.81,-274.15 731.31,-264.15 727.81,-274.15 734.81,-274.15"/>
</g>
<!-- imsic11_toCSR -->
<g id="node30" class="node">
<title>imsic11_toCSR</title>
<polygon fill="none" stroke="black" points="702.12,-262.19 635.88,-262.19 635.88,-219.69 702.12,-219.69 702.12,-262.19"/>
<text text-anchor="middle" x="669" y="-244.89" font-family="Times,serif" font-size="14.00">toCSR</text>
<text text-anchor="middle" x="669" y="-227.64" font-family="Times,serif" font-size="14.00">Bundle</text>
</g>
<!-- imsic11_fromMem&#45;&gt;imsic11_toCSR -->
<g id="edge28" class="edge">
<title>imsic11_fromMem&#45;&gt;imsic11_toCSR</title>
<path fill="none" stroke="none" d="M679.62,-297.99C679.62,-297.99 679.62,-274.15 679.62,-274.15"/>
<polygon fill="none" stroke="none" points="683.13,-274.15 679.63,-264.15 676.13,-274.15 683.13,-274.15"/>
</g>
<!-- axi4imsic11_fromCSR -->
<g id="node34" class="node">
<title>axi4imsic11_fromCSR</title>
<polygon fill="none" stroke="black" points="798.25,-183.69 717.75,-183.69 717.75,-141.19 798.25,-141.19 798.25,-183.69"/>
<text text-anchor="middle" x="758" y="-166.39" font-family="Times,serif" font-size="14.00">fromCSR</text>
<text text-anchor="middle" x="758" y="-149.14" font-family="Times,serif" font-size="14.00">Bundle</text>
</g>
<!-- imsic11_fromCSR&#45;&gt;axi4imsic11_fromCSR -->
<g id="edge32" class="edge">
<title>imsic11_fromCSR&#45;&gt;axi4imsic11_fromCSR</title>
<path fill="none" stroke="black" d="M759,-207.98C759,-207.98 759,-184.14 759,-184.14"/>
<polygon fill="black" stroke="black" points="755.5,-207.98 759,-217.98 762.5,-207.98 755.5,-207.98"/>
</g>
<!-- axi4imsic11_toCSR -->
<g id="node33" class="node">
<title>axi4imsic11_toCSR</title>
<polygon fill="none" stroke="black" points="698.12,-183.69 631.88,-183.69 631.88,-141.19 698.12,-141.19 698.12,-183.69"/>
<text text-anchor="middle" x="665" y="-166.39" font-family="Times,serif" font-size="14.00">toCSR</text>
<text text-anchor="middle" x="665" y="-149.14" font-family="Times,serif" font-size="14.00">Bundle</text>
</g>
<!-- imsic11_toCSR&#45;&gt;axi4imsic11_toCSR -->
<g id="edge31" class="edge">
<title>imsic11_toCSR&#45;&gt;axi4imsic11_toCSR</title>
<path fill="none" stroke="black" d="M667,-219.49C667,-219.49 667,-195.65 667,-195.65"/>
<polygon fill="black" stroke="black" points="670.5,-195.65 667,-185.65 663.5,-195.65 670.5,-195.65"/>
</g>
<!-- axi4imsic11_fromMem -->
<g id="node31" class="node">
<title>axi4imsic11_fromMem</title>
<polygon fill="none" stroke="black" points="771.75,-513.69 628.25,-513.69 628.25,-471.19 771.75,-471.19 771.75,-513.69"/>
<text text-anchor="middle" x="700" y="-496.39" font-family="Times,serif" font-size="14.00">fromMem</text>
<text text-anchor="middle" x="700" y="-479.14" font-family="Times,serif" font-size="14.00">AXI4IdentityNode</text>
</g>
<!-- axi4imsic11_axi4totl -->
<g id="node32" class="node">
<title>axi4imsic11_axi4totl</title>
<polygon fill="#dae8fc" stroke="#6c8ebf" points="742.12,-435.19 657.88,-435.19 657.88,-399.19 742.12,-399.19 742.12,-435.19"/>
<text text-anchor="middle" x="700" y="-412.51" font-family="Times,serif" font-size="14.00">AXI4ToTL</text>
</g>
<!-- axi4imsic11_fromMem&#45;&gt;axi4imsic11_axi4totl -->
<g id="edge29" class="edge">
<title>axi4imsic11_fromMem&#45;&gt;axi4imsic11_axi4totl</title>
<path fill="none" stroke="black" d="M700,-471.08C700,-471.08 700,-446.81 700,-446.81"/>
<polygon fill="black" stroke="black" points="703.5,-446.81 700,-436.81 696.5,-446.81 703.5,-446.81"/>
</g>
<!-- axi4imsic11_axi4totl&#45;&gt;imsic11_fromMem -->
<g id="edge30" class="edge">
<title>axi4imsic11_axi4totl&#45;&gt;imsic11_fromMem</title>
<path fill="none" stroke="black" d="M700,-398.8C700,-398.8 700,-352.67 700,-352.67"/>
<polygon fill="black" stroke="black" points="703.5,-352.67 700,-342.67 696.5,-352.67 703.5,-352.67"/>
</g>
<!-- toCSR3 -->
<g id="node42" class="node">
<title>toCSR3</title>
<polygon fill="none" stroke="black" points="691,-105.19 621,-105.19 621,-62.69 691,-62.69 691,-105.19"/>
<text text-anchor="middle" x="656" y="-87.89" font-family="Times,serif" font-size="14.00">toCSR3</text>
<text text-anchor="middle" x="656" y="-70.64" font-family="Times,serif" font-size="14.00">Bundle</text>
</g>
<!-- axi4imsic11_toCSR&#45;&gt;toCSR3 -->
<g id="edge41" class="edge">
<title>axi4imsic11_toCSR&#45;&gt;toCSR3</title>
<path fill="none" stroke="black" d="M661.44,-140.99C661.44,-140.99 661.44,-117.15 661.44,-117.15"/>
<polygon fill="black" stroke="black" points="664.94,-117.15 661.44,-107.15 657.94,-117.15 664.94,-117.15"/>
</g>
<!-- fromCSR3 -->
<g id="node43" class="node">
<title>fromCSR3</title>
<polygon fill="none" stroke="black" points="800.75,-105.19 711.25,-105.19 711.25,-62.69 800.75,-62.69 800.75,-105.19"/>
<text text-anchor="middle" x="756" y="-87.89" font-family="Times,serif" font-size="14.00">fromCSR3</text>
<text text-anchor="middle" x="756" y="-70.64" font-family="Times,serif" font-size="14.00">Bundle</text>
</g>
<!-- axi4imsic11_fromCSR&#45;&gt;fromCSR3 -->
<g id="edge42" class="edge">
<title>axi4imsic11_fromCSR&#45;&gt;fromCSR3</title>
<path fill="none" stroke="black" d="M758,-129.48C758,-129.48 758,-105.64 758,-105.64"/>
<polygon fill="black" stroke="black" points="754.5,-129.48 758,-139.48 761.5,-129.48 754.5,-129.48"/>
</g>
<!-- map11&#45;&gt;axi4imsic11_fromMem -->
<g id="edge34" class="edge">
<title>map11&#45;&gt;axi4imsic11_fromMem</title>
<path fill="none" stroke="black" d="M700,-571.97C700,-571.97 700,-525.5 700,-525.5"/>
<polygon fill="black" stroke="black" points="703.5,-525.5 700,-515.5 696.5,-525.5 703.5,-525.5"/>
</g>
<!-- output -->
<g id="node54" class="node">
<title>output</title>
<polygon fill="none" stroke="none" points="804,-26.69 12,-26.69 12,-25.25 804,-25.25 804,-26.69"/>
</g>
<!-- toCSR0&#45;&gt;output -->
<g id="edge55" class="edge">
<title>toCSR0&#45;&gt;output</title>
<path fill="none" stroke="black" d="M61,-62.35C61,-62.35 61,-38.6 61,-38.6"/>
<polygon fill="black" stroke="black" points="64.5,-38.6 61,-28.6 57.5,-38.6 64.5,-38.6"/>
</g>
<!-- fromCSR0&#45;&gt;output -->
<g id="edge56" class="edge">
<title>fromCSR0&#45;&gt;output</title>
<path fill="none" stroke="black" d="M159,-50.84C159,-50.84 159,-27.09 159,-27.09"/>
<polygon fill="black" stroke="black" points="155.5,-50.84 159,-60.84 162.5,-50.84 155.5,-50.84"/>
</g>
<!-- toCSR1&#45;&gt;output -->
<g id="edge57" class="edge">
<title>toCSR1&#45;&gt;output</title>
<path fill="none" stroke="black" d="M261,-62.35C261,-62.35 261,-38.6 261,-38.6"/>
<polygon fill="black" stroke="black" points="264.5,-38.6 261,-28.6 257.5,-38.6 264.5,-38.6"/>
</g>
<!-- fromCSR1&#45;&gt;output -->
<g id="edge58" class="edge">
<title>fromCSR1&#45;&gt;output</title>
<path fill="none" stroke="black" d="M359,-50.84C359,-50.84 359,-27.09 359,-27.09"/>
<polygon fill="black" stroke="black" points="355.5,-50.84 359,-60.84 362.5,-50.84 355.5,-50.84"/>
</g>
<!-- toCSR2&#45;&gt;output -->
<g id="edge59" class="edge">
<title>toCSR2&#45;&gt;output</title>
<path fill="none" stroke="black" d="M457,-62.35C457,-62.35 457,-38.6 457,-38.6"/>
<polygon fill="black" stroke="black" points="460.5,-38.6 457,-28.6 453.5,-38.6 460.5,-38.6"/>
</g>
<!-- fromCSR2&#45;&gt;output -->
<g id="edge60" class="edge">
<title>fromCSR2&#45;&gt;output</title>
<path fill="none" stroke="black" d="M555,-50.84C555,-50.84 555,-27.09 555,-27.09"/>
<polygon fill="black" stroke="black" points="551.5,-50.84 555,-60.84 558.5,-50.84 551.5,-50.84"/>
</g>
<!-- toCSR3&#45;&gt;output -->
<g id="edge61" class="edge">
<title>toCSR3&#45;&gt;output</title>
<path fill="none" stroke="black" d="M656,-62.35C656,-62.35 656,-38.6 656,-38.6"/>
<polygon fill="black" stroke="black" points="659.5,-38.6 656,-28.6 652.5,-38.6 659.5,-38.6"/>
</g>
<!-- fromCSR3&#45;&gt;output -->
<g id="edge62" class="edge">
<title>fromCSR3&#45;&gt;output</title>
<path fill="none" stroke="black" d="M756,-50.84C756,-50.84 756,-27.09 756,-27.09"/>
<polygon fill="black" stroke="black" points="752.5,-50.84 756,-60.84 759.5,-50.84 752.5,-50.84"/>
</g>
<!-- aplic_fromCPU -->
<g id="node44" class="node">
<title>aplic_fromCPU</title>
<polygon fill="none" stroke="black" points="479.62,-1035.19 398.38,-1035.19 398.38,-992.69 479.62,-992.69 479.62,-1035.19"/>
<text text-anchor="middle" x="439" y="-1017.89" font-family="Times,serif" font-size="14.00">fromCPU</text>
<text text-anchor="middle" x="439" y="-1000.64" font-family="Times,serif" font-size="14.00">TLXbar</text>
</g>
<!-- aplic_toIMSIC -->
<g id="node45" class="node">
<title>aplic_toIMSIC</title>
<polygon fill="none" stroke="black" points="499.62,-956.69 424.38,-956.69 424.38,-914.19 499.62,-914.19 499.62,-956.69"/>
<text text-anchor="middle" x="462" y="-939.39" font-family="Times,serif" font-size="14.00">toIMSIC</text>
<text text-anchor="middle" x="462" y="-922.14" font-family="Times,serif" font-size="14.00">TLXbar</text>
</g>
<!-- aplic_fromCPU&#45;&gt;aplic_toIMSIC -->
<g id="edge43" class="edge">
<title>aplic_fromCPU&#45;&gt;aplic_toIMSIC</title>
<path fill="none" stroke="none" d="M452,-992.49C452,-992.49 452,-968.65 452,-968.65"/>
<polygon fill="none" stroke="none" points="455.5,-968.65 452,-958.65 448.5,-968.65 455.5,-968.65"/>
</g>
<!-- axi4aplic_tltoaxi4 -->
<g id="node50" class="node">
<title>axi4aplic_tltoaxi4</title>
<polygon fill="#dae8fc" stroke="#6c8ebf" points="503.75,-878.19 420.25,-878.19 420.25,-842.19 503.75,-842.19 503.75,-878.19"/>
<text text-anchor="middle" x="462" y="-855.52" font-family="Times,serif" font-size="14.00">TLToAXI4</text>
</g>
<!-- aplic_toIMSIC&#45;&gt;axi4aplic_tltoaxi4 -->
<g id="edge47" class="edge">
<title>aplic_toIMSIC&#45;&gt;axi4aplic_tltoaxi4</title>
<path fill="none" stroke="black" d="M462,-914.08C462,-914.08 462,-889.81 462,-889.81"/>
<polygon fill="black" stroke="black" points="465.5,-889.81 462,-879.81 458.5,-889.81 465.5,-889.81"/>
</g>
<!-- aplic_intSrcs -->
<g id="node46" class="node">
<title>aplic_intSrcs</title>
<polygon fill="none" stroke="black" points="622,-1035.19 498,-1035.19 498,-992.69 622,-992.69 622,-1035.19"/>
<text text-anchor="middle" x="560" y="-1017.89" font-family="Times,serif" font-size="14.00">module.intSrcs</text>
<text text-anchor="middle" x="560" y="-1000.64" font-family="Times,serif" font-size="14.00">Bundle</text>
</g>
<!-- aplic_intSrcs&#45;&gt;aplic_toIMSIC -->
<g id="edge44" class="edge">
<title>aplic_intSrcs&#45;&gt;aplic_toIMSIC</title>
<path fill="none" stroke="none" d="M497.78,-1013.25C490.65,-1013.25 485.88,-1013.25 485.88,-1013.25 485.88,-1013.25 485.88,-968.63 485.88,-968.63"/>
<polygon fill="none" stroke="none" points="489.38,-968.63 485.88,-958.63 482.38,-968.63 489.38,-968.63"/>
</g>
<!-- axi4aplic_axi4totl -->
<g id="node48" class="node">
<title>axi4aplic_axi4totl</title>
<polygon fill="#dae8fc" stroke="#6c8ebf" points="492.12,-1132.94 407.88,-1132.94 407.88,-1096.94 492.12,-1096.94 492.12,-1132.94"/>
<text text-anchor="middle" x="450" y="-1110.27" font-family="Times,serif" font-size="14.00">AXI4ToTL</text>
</g>
<!-- axi4aplic_fromCPU&#45;&gt;axi4aplic_axi4totl -->
<g id="edge45" class="edge">
<title>axi4aplic_fromCPU&#45;&gt;axi4aplic_axi4totl</title>
<path fill="none" stroke="black" d="M450,-1171.99C450,-1171.99 450,-1144.95 450,-1144.95"/>
<polygon fill="black" stroke="black" points="453.5,-1144.95 450,-1134.95 446.5,-1144.95 453.5,-1144.95"/>
</g>
<!-- axi4aplic_axi4totl&#45;&gt;aplic_fromCPU -->
<g id="edge46" class="edge">
<title>axi4aplic_axi4totl&#45;&gt;aplic_fromCPU</title>
<path fill="none" stroke="black" d="M443.75,-1096.88C443.75,-1096.88 443.75,-1046.86 443.75,-1046.86"/>
<polygon fill="black" stroke="black" points="447.25,-1046.86 443.75,-1036.86 440.25,-1046.86 447.25,-1046.86"/>
</g>
<!-- axi4aplic_toIMSIC -->
<g id="node49" class="node">
<title>axi4aplic_toIMSIC</title>
<polygon fill="none" stroke="black" points="533.75,-806.19 390.25,-806.19 390.25,-763.69 533.75,-763.69 533.75,-806.19"/>
<text text-anchor="middle" x="462" y="-788.89" font-family="Times,serif" font-size="14.00">toIMSIC</text>
<text text-anchor="middle" x="462" y="-771.64" font-family="Times,serif" font-size="14.00">AXI4IdentityNode</text>
</g>
<!-- axi4aplic_toIMSIC&#45;&gt;imsics_fromMem_xbar -->
<g id="edge51" class="edge">
<title>axi4aplic_toIMSIC&#45;&gt;imsics_fromMem_xbar</title>
<path fill="none" stroke="black" d="M462,-763.49C462,-763.49 462,-739.65 462,-739.65"/>
<polygon fill="black" stroke="black" points="465.5,-739.65 462,-729.65 458.5,-739.65 465.5,-739.65"/>
</g>
<!-- axi4aplic_tltoaxi4&#45;&gt;axi4aplic_toIMSIC -->
<g id="edge48" class="edge">
<title>axi4aplic_tltoaxi4&#45;&gt;axi4aplic_toIMSIC</title>
<path fill="none" stroke="black" d="M462,-841.97C462,-841.97 462,-817.98 462,-817.98"/>
<polygon fill="black" stroke="black" points="465.5,-817.98 462,-807.98 458.5,-817.98 465.5,-817.98"/>
</g>
<!-- axi4aplic_intSrcs -->
<g id="node51" class="node">
<title>axi4aplic_intSrcs</title>
<polygon fill="none" stroke="black" points="598.5,-1136.19 531.5,-1136.19 531.5,-1093.69 598.5,-1093.69 598.5,-1136.19"/>
<text text-anchor="middle" x="565" y="-1118.89" font-family="Times,serif" font-size="14.00">intSrcs</text>
<text text-anchor="middle" x="565" y="-1101.64" font-family="Times,serif" font-size="14.00">Bundle</text>
</g>
<!-- axi4aplic_intSrcs&#45;&gt;aplic_intSrcs -->
<g id="edge49" class="edge">
<title>axi4aplic_intSrcs&#45;&gt;aplic_intSrcs</title>
<path fill="none" stroke="black" d="M565,-1093.52C565,-1093.52 565,-1047.19 565,-1047.19"/>
<polygon fill="black" stroke="black" points="568.5,-1047.19 565,-1037.19 561.5,-1047.19 568.5,-1047.19"/>
</g>
<!-- intSrcs -->
<g id="node52" class="node">
<title>intSrcs</title>
<polygon fill="none" stroke="black" points="581.5,-1394.19 514.5,-1394.19 514.5,-1351.69 581.5,-1351.69 581.5,-1394.19"/>
<text text-anchor="middle" x="548" y="-1376.89" font-family="Times,serif" font-size="14.00">intSrcs</text>
<text text-anchor="middle" x="548" y="-1359.64" font-family="Times,serif" font-size="14.00">Bundle</text>
</g>
<!-- intSrcs&#45;&gt;axi4aplic_intSrcs -->
<g id="edge52" class="edge">
<title>intSrcs&#45;&gt;axi4aplic_intSrcs</title>
<path fill="none" stroke="black" d="M561.75,-1351.39C561.75,-1351.39 561.75,-1148.13 561.75,-1148.13"/>
<polygon fill="black" stroke="black" points="565.25,-1148.13 561.75,-1138.13 558.25,-1148.13 565.25,-1148.13"/>
</g>
<!-- input -->
<g id="node53" class="node">
<title>input</title>
<polygon fill="none" stroke="none" points="645,-1431.63 285,-1431.63 285,-1430.19 645,-1430.19 645,-1431.63"/>
</g>
<!-- input&#45;&gt;toAIA -->
<g id="edge54" class="edge">
<title>input&#45;&gt;toAIA</title>
<path fill="none" stroke="black" d="M405,-1429.9C405,-1429.9 405,-1406.04 405,-1406.04"/>
<polygon fill="black" stroke="black" points="408.5,-1406.04 405,-1396.04 401.5,-1406.04 408.5,-1406.04"/>
</g>
<!-- input&#45;&gt;intSrcs -->
<g id="edge53" class="edge">
<title>input&#45;&gt;intSrcs</title>
<path fill="none" stroke="black" d="M548,-1429.9C548,-1429.9 548,-1406.04 548,-1406.04"/>
<polygon fill="black" stroke="black" points="551.5,-1406.04 548,-1396.04 544.5,-1406.04 551.5,-1406.04"/>
</g>
</g>
</svg>
