<?xml version="1.0" encoding="UTF-8" standalone="no"?>
<!DOCTYPE svg PUBLIC "-//W3C//DTD SVG 1.1//EN"
 "http://www.w3.org/Graphics/SVG/1.1/DTD/svg11.dtd">
<!-- Generated by graphviz version 10.0.1 (0)
 -->
<!-- Pages: 1 -->
<svg width="669px" height="408px"
 viewBox="0.00 0.00 669.00 407.50" xmlns="http://www.w3.org/2000/svg" xmlns:xlink="http://www.w3.org/1999/xlink">
<g id="graph0" class="graph" transform="scale(1 1) rotate(0) translate(4 403.5)">
<text text-anchor="middle" x="330.5" y="-7.95" font-family="Times,serif" font-size="14.00">Files and Classes in ChiselAIA</text>
<g id="clust1" class="cluster">
<title>legend</title>
<polygon fill="none" stroke="gray" points="170,-291.75 170,-391.5 462,-391.5 462,-291.75 170,-291.75"/>
<text text-anchor="middle" x="316" y="-374.2" font-family="Times,serif" font-size="14.00">Legend</text>
</g>
<g id="clust2" class="cluster">
<title>aplic_scala</title>
<polygon fill="none" stroke="black" points="8,-41.25 8,-283.75 310,-283.75 310,-41.25 8,-41.25"/>
<text text-anchor="middle" x="159" y="-266.45" font-family="Times,serif" font-size="14.00">APLIC.scala</text>
</g>
<g id="clust3" class="cluster">
<title>%5</title>
<polygon fill="none" stroke="black" points="16,-49.25 16,-126.5 302,-126.5 302,-49.25 16,-49.25"/>
<text text-anchor="middle" x="159" y="-109.2" font-family="Times,serif" font-size="14.00">APLIC.scala</text>
</g>
<g id="clust4" class="cluster">
<title>imsic_scala</title>
<polygon fill="none" stroke="black" points="318,-33.25 318,-283.75 653,-283.75 653,-33.25 318,-33.25"/>
<text text-anchor="middle" x="485.5" y="-266.45" font-family="Times,serif" font-size="14.00">IMSIC.scala</text>
</g>
<g id="clust5" class="cluster">
<title>%13</title>
<polygon fill="none" stroke="black" points="326,-41.25 326,-134.5 645,-134.5 645,-41.25 326,-41.25"/>
<text text-anchor="middle" x="485.5" y="-117.2" font-family="Times,serif" font-size="14.00">IMSIC.scala</text>
</g>
<!-- _class0 -->
<g id="node1" class="node">
<title>_class0</title>
<polygon fill="#f8cecc" stroke="#b85450" points="301.62,-350.25 178.38,-350.25 178.38,-307.75 301.62,-307.75 301.62,-350.25"/>
<text text-anchor="middle" x="240" y="-332.95" font-family="Times,serif" font-size="14.00">single&#45;instance</text>
<text text-anchor="middle" x="240" y="-315.7" font-family="Times,serif" font-size="14.00">class</text>
</g>
<!-- aplicparams -->
<g id="node3" class="node">
<title>aplicparams</title>
<polygon fill="#f8cecc" stroke="#b85450" points="301.62,-250.5 148.38,-250.5 148.38,-214.5 301.62,-214.5 301.62,-250.5"/>
<text text-anchor="middle" x="225" y="-227.82" font-family="Times,serif" font-size="14.00">class APLICParams</text>
</g>
<!-- _class0&#45;&gt;aplicparams -->
<g id="edge7" class="edge">
<title>_class0&#45;&gt;aplicparams</title>
<path fill="none" stroke="none" d="M236.75,-307.49C234.62,-294.13 231.83,-276.51 229.49,-261.82"/>
<polygon fill="none" stroke="none" points="233.01,-261.62 227.98,-252.29 226.09,-262.72 233.01,-261.62"/>
</g>
<!-- _class1 -->
<g id="node2" class="node">
<title>_class1</title>
<polygon fill="#f8cecc" stroke="#b85450" points="446,-350.25 328,-350.25 328,-307.75 446,-307.75 446,-350.25"/>
<polygon fill="none" stroke="#b85450" points="450,-354.25 324,-354.25 324,-303.75 450,-303.75 450,-354.25"/>
<polygon fill="none" stroke="#b85450" points="454,-358.25 320,-358.25 320,-299.75 454,-299.75 454,-358.25"/>
<text text-anchor="middle" x="387" y="-332.95" font-family="Times,serif" font-size="14.00">multi&#45;instance</text>
<text text-anchor="middle" x="387" y="-315.7" font-family="Times,serif" font-size="14.00">class</text>
</g>
<!-- imsicparams -->
<g id="node7" class="node">
<title>imsicparams</title>
<polygon fill="#f8cecc" stroke="#b85450" points="480,-250.5 326,-250.5 326,-214.5 480,-214.5 480,-250.5"/>
<text text-anchor="middle" x="403" y="-227.82" font-family="Times,serif" font-size="14.00">class IMSICParams</text>
</g>
<!-- _class1&#45;&gt;imsicparams -->
<g id="edge8" class="edge">
<title>_class1&#45;&gt;imsicparams</title>
<path fill="none" stroke="none" d="M391.84,-299.39C393.86,-287.49 396.19,-273.72 398.2,-261.85"/>
<polygon fill="none" stroke="none" points="401.61,-262.69 399.83,-252.25 394.71,-261.52 401.61,-262.69"/>
</g>
<!-- aplic -->
<g id="node4" class="node">
<title>aplic</title>
<polygon fill="#f8cecc" stroke="#b85450" points="275,-178.5 175,-178.5 175,-142.5 275,-142.5 275,-178.5"/>
<text text-anchor="middle" x="225" y="-155.82" font-family="Times,serif" font-size="14.00">class APLIC</text>
</g>
<!-- aplicparams&#45;&gt;aplic -->
<g id="edge1" class="edge">
<title>aplicparams&#45;&gt;aplic</title>
<path fill="none" stroke="#b85450" d="M225,-214.2C225,-206.91 225,-198.23 225,-190.04"/>
<polygon fill="#b85450" stroke="#b85450" points="228.5,-190.12 225,-180.12 221.5,-190.12 228.5,-190.12"/>
</g>
<!-- tlaplic -->
<g id="node5" class="node">
<title>tlaplic</title>
<polygon fill="#f8cecc" stroke="#b85450" points="142,-93.25 24,-93.25 24,-57.25 142,-57.25 142,-93.25"/>
<text text-anchor="middle" x="83" y="-70.58" font-family="Times,serif" font-size="14.00">class TLAPLIC</text>
</g>
<!-- aplic&#45;&gt;tlaplic -->
<g id="edge2" class="edge">
<title>aplic&#45;&gt;tlaplic</title>
<path fill="none" stroke="#b85450" d="M174.51,-145.35C166.42,-142.27 158.31,-138.66 151,-134.5 135.34,-125.6 119.93,-112.82 107.74,-101.5"/>
<polygon fill="#b85450" stroke="#b85450" points="110.22,-99.02 100.58,-94.64 105.38,-104.08 110.22,-99.02"/>
</g>
<!-- axi4aplic -->
<g id="node6" class="node">
<title>axi4aplic</title>
<polygon fill="#f8cecc" stroke="#b85450" points="293.88,-93.25 160.12,-93.25 160.12,-57.25 293.88,-57.25 293.88,-93.25"/>
<text text-anchor="middle" x="227" y="-70.58" font-family="Times,serif" font-size="14.00">class AXI4APLIC</text>
</g>
<!-- aplic&#45;&gt;axi4aplic -->
<g id="edge3" class="edge">
<title>aplic&#45;&gt;axi4aplic</title>
<path fill="none" stroke="#b85450" d="M225.41,-142.25C225.67,-131.42 226.02,-117.2 226.32,-104.73"/>
<polygon fill="#b85450" stroke="#b85450" points="229.81,-105.07 226.55,-94.99 222.81,-104.9 229.81,-105.07"/>
</g>
<!-- imsic -->
<g id="node8" class="node">
<title>imsic</title>
<polygon fill="#f8cecc" stroke="#b85450" points="453.38,-178.5 352.62,-178.5 352.62,-142.5 453.38,-142.5 453.38,-178.5"/>
<text text-anchor="middle" x="403" y="-155.82" font-family="Times,serif" font-size="14.00">class IMSIC</text>
</g>
<!-- imsicparams&#45;&gt;imsic -->
<g id="edge4" class="edge">
<title>imsicparams&#45;&gt;imsic</title>
<path fill="none" stroke="#b85450" d="M403,-214.2C403,-206.91 403,-198.23 403,-190.04"/>
<polygon fill="#b85450" stroke="#b85450" points="406.5,-190.12 403,-180.12 399.5,-190.12 406.5,-190.12"/>
</g>
<!-- tlimsic -->
<g id="node9" class="node">
<title>tlimsic</title>
<polygon fill="#f8cecc" stroke="#b85450" points="460.38,-93.25 341.62,-93.25 341.62,-57.25 460.38,-57.25 460.38,-93.25"/>
<polygon fill="none" stroke="#b85450" points="464.38,-97.25 337.62,-97.25 337.62,-53.25 464.38,-53.25 464.38,-97.25"/>
<polygon fill="none" stroke="#b85450" points="468.38,-101.25 333.62,-101.25 333.62,-49.25 468.38,-49.25 468.38,-101.25"/>
<text text-anchor="middle" x="401" y="-70.58" font-family="Times,serif" font-size="14.00">class TLIMSIC</text>
</g>
<!-- imsic&#45;&gt;tlimsic -->
<g id="edge5" class="edge">
<title>imsic&#45;&gt;tlimsic</title>
<path fill="none" stroke="#b85450" d="M402.59,-142.25C402.38,-133.74 402.13,-123.13 401.88,-112.92"/>
<polygon fill="#b85450" stroke="#b85450" points="405.39,-113.12 401.65,-103.21 398.39,-113.29 405.39,-113.12"/>
</g>
<!-- axi4imsic -->
<g id="node10" class="node">
<title>axi4imsic</title>
<polygon fill="#f8cecc" stroke="#b85450" points="629.25,-93.25 494.75,-93.25 494.75,-57.25 629.25,-57.25 629.25,-93.25"/>
<polygon fill="none" stroke="#b85450" points="633.25,-97.25 490.75,-97.25 490.75,-53.25 633.25,-53.25 633.25,-97.25"/>
<polygon fill="none" stroke="#b85450" points="637.25,-101.25 486.75,-101.25 486.75,-49.25 637.25,-49.25 637.25,-101.25"/>
<text text-anchor="middle" x="562" y="-70.58" font-family="Times,serif" font-size="14.00">class AXI4IMSIC</text>
</g>
<!-- imsic&#45;&gt;axi4imsic -->
<g id="edge6" class="edge">
<title>imsic&#45;&gt;axi4imsic</title>
<path fill="none" stroke="#b85450" d="M453.52,-144.52C461.53,-141.55 469.6,-138.2 477,-134.5 491.68,-127.17 506.75,-117.61 520.06,-108.36"/>
<polygon fill="#b85450" stroke="#b85450" points="522.04,-111.25 528.16,-102.6 517.98,-105.54 522.04,-111.25"/>
</g>
</g>
</svg>
