<?xml version="1.0" encoding="UTF-8" standalone="no"?>
<!DOCTYPE svg PUBLIC "-//W3C//DTD SVG 1.1//EN"
 "http://www.w3.org/Graphics/SVG/1.1/DTD/svg11.dtd">
<!-- Generated by graphviz version 10.0.1 (0)
 -->
<!-- Pages: 1 -->
<svg width="372px" height="322px"
 viewBox="0.00 0.00 372.00 322.25" xmlns="http://www.w3.org/2000/svg" xmlns:xlink="http://www.w3.org/1999/xlink">
<g id="graph0" class="graph" transform="scale(1 1) rotate(0) translate(4 318.25)">
<text text-anchor="middle" x="182" y="-7.95" font-family="Times,serif" font-size="14.00">Files and Classes in ChiselAIA</text>
<g id="clust1" class="cluster">
<title>legend</title>
<polygon fill="none" stroke="gray" points="38,-206.5 38,-306.25 330,-306.25 330,-206.5 38,-206.5"/>
<text text-anchor="middle" x="184" y="-288.95" font-family="Times,serif" font-size="14.00">Legend</text>
</g>
<g id="clust2" class="cluster">
<title>aplic_scala</title>
<polygon fill="none" stroke="black" points="8,-41.25 8,-198.5 178,-198.5 178,-41.25 8,-41.25"/>
<text text-anchor="middle" x="93" y="-181.2" font-family="Times,serif" font-size="14.00">APLIC.scala</text>
</g>
<g id="clust3" class="cluster">
<title>imsic_scala</title>
<polygon fill="none" stroke="black" points="186,-33.25 186,-198.5 356,-198.5 356,-33.25 186,-33.25"/>
<text text-anchor="middle" x="271" y="-181.2" font-family="Times,serif" font-size="14.00">IMSIC.scala</text>
</g>
<!-- _class0 -->
<g id="node1" class="node">
<title>_class0</title>
<polygon fill="#f8cecc" stroke="#b85450" points="169.62,-265 46.38,-265 46.38,-222.5 169.62,-222.5 169.62,-265"/>
<text text-anchor="middle" x="108" y="-247.7" font-family="Times,serif" font-size="14.00">single&#45;instance</text>
<text text-anchor="middle" x="108" y="-230.45" font-family="Times,serif" font-size="14.00">class</text>
</g>
<!-- aplicparams -->
<g id="node3" class="node">
<title>aplicparams</title>
<polygon fill="#f8cecc" stroke="#b85450" points="169.62,-165.25 16.38,-165.25 16.38,-129.25 169.62,-129.25 169.62,-165.25"/>
<text text-anchor="middle" x="93" y="-142.57" font-family="Times,serif" font-size="14.00">class APLICParams</text>
</g>
<!-- _class0&#45;&gt;aplicparams -->
<g id="edge3" class="edge">
<title>_class0&#45;&gt;aplicparams</title>
<path fill="none" stroke="none" d="M104.75,-222.24C102.62,-208.88 99.83,-191.26 97.49,-176.57"/>
<polygon fill="none" stroke="none" points="101.01,-176.37 95.98,-167.04 94.09,-177.47 101.01,-176.37"/>
</g>
<!-- _class1 -->
<g id="node2" class="node">
<title>_class1</title>
<polygon fill="#f8cecc" stroke="#b85450" points="314,-265 196,-265 196,-222.5 314,-222.5 314,-265"/>
<polygon fill="none" stroke="#b85450" points="318,-269 192,-269 192,-218.5 318,-218.5 318,-269"/>
<polygon fill="none" stroke="#b85450" points="322,-273 188,-273 188,-214.5 322,-214.5 322,-273"/>
<text text-anchor="middle" x="255" y="-247.7" font-family="Times,serif" font-size="14.00">multi&#45;instance</text>
<text text-anchor="middle" x="255" y="-230.45" font-family="Times,serif" font-size="14.00">class</text>
</g>
<!-- imsicparams -->
<g id="node5" class="node">
<title>imsicparams</title>
<polygon fill="#f8cecc" stroke="#b85450" points="348,-165.25 194,-165.25 194,-129.25 348,-129.25 348,-165.25"/>
<text text-anchor="middle" x="271" y="-142.57" font-family="Times,serif" font-size="14.00">class IMSICParams</text>
</g>
<!-- _class1&#45;&gt;imsicparams -->
<g id="edge4" class="edge">
<title>_class1&#45;&gt;imsicparams</title>
<path fill="none" stroke="none" d="M259.84,-214.14C261.86,-202.24 264.19,-188.47 266.2,-176.6"/>
<polygon fill="none" stroke="none" points="269.61,-177.44 267.83,-167 262.71,-176.27 269.61,-177.44"/>
</g>
<!-- tlaplic -->
<g id="node4" class="node">
<title>tlaplic</title>
<polygon fill="#f8cecc" stroke="#b85450" points="152,-85.25 34,-85.25 34,-49.25 152,-49.25 152,-85.25"/>
<text text-anchor="middle" x="93" y="-62.58" font-family="Times,serif" font-size="14.00">class TLAPLIC</text>
</g>
<!-- aplicparams&#45;&gt;tlaplic -->
<g id="edge1" class="edge">
<title>aplicparams&#45;&gt;tlaplic</title>
<path fill="none" stroke="#b85450" d="M93,-128.94C93,-119.55 93,-107.7 93,-96.96"/>
<polygon fill="#b85450" stroke="#b85450" points="96.5,-97.03 93,-87.03 89.5,-97.03 96.5,-97.03"/>
</g>
<!-- tlimsic -->
<g id="node6" class="node">
<title>tlimsic</title>
<polygon fill="#f8cecc" stroke="#b85450" points="330.38,-85.25 211.62,-85.25 211.62,-49.25 330.38,-49.25 330.38,-85.25"/>
<polygon fill="none" stroke="#b85450" points="334.38,-89.25 207.62,-89.25 207.62,-45.25 334.38,-45.25 334.38,-89.25"/>
<polygon fill="none" stroke="#b85450" points="338.38,-93.25 203.62,-93.25 203.62,-41.25 338.38,-41.25 338.38,-93.25"/>
<text text-anchor="middle" x="271" y="-62.58" font-family="Times,serif" font-size="14.00">class TLIMSIC</text>
</g>
<!-- imsicparams&#45;&gt;tlimsic -->
<g id="edge2" class="edge">
<title>imsicparams&#45;&gt;tlimsic</title>
<path fill="none" stroke="#b85450" d="M271,-128.94C271,-121.78 271,-113.19 271,-104.76"/>
<polygon fill="#b85450" stroke="#b85450" points="274.5,-105.02 271,-95.02 267.5,-105.02 274.5,-105.02"/>
</g>
</g>
</svg>
